<mxfile host="65bd71144e">
    <diagram id="TKEgoqXHID_q1MI3kZL-" name="Page-1">
        <mxGraphModel dx="1528" dy="1152" grid="1" gridSize="10" guides="1" tooltips="1" connect="1" arrows="1" fold="1" page="1" pageScale="1" pageWidth="827" pageHeight="1169" math="0" shadow="0">
            <root>
                <mxCell id="0"/>
                <mxCell id="1" parent="0"/>
                <mxCell id="2" value="Header" style="shape=umlFrame;whiteSpace=wrap;html=1;width=120;height=30;boundedLbl=1;verticalAlign=middle;align=left;spacingLeft=5;" parent="1" vertex="1">
                    <mxGeometry x="40" y="20" width="740" height="170" as="geometry"/>
                </mxCell>
                <mxCell id="3" value="Main" style="shape=umlFrame;whiteSpace=wrap;html=1;width=120;height=30;boundedLbl=1;verticalAlign=middle;align=left;spacingLeft=5;" parent="1" vertex="1">
                    <mxGeometry x="40" y="210" width="740" height="2560" as="geometry"/>
                </mxCell>
                <mxCell id="4" value="footer" style="shape=umlFrame;whiteSpace=wrap;html=1;width=120;height=30;boundedLbl=1;verticalAlign=middle;align=left;spacingLeft=5;" parent="1" vertex="1">
                    <mxGeometry x="40" y="2840" width="740" height="110" as="geometry"/>
                </mxCell>
                <mxCell id="8" value="div - #logo" style="verticalAlign=top;align=left;shape=cube;size=10;direction=south;fontStyle=0;html=1;boundedLbl=1;spacingLeft=5;" parent="1" vertex="1">
                    <mxGeometry x="190" y="35" width="130" height="140" as="geometry"/>
                </mxCell>
                <mxCell id="9" value="src = img" style="verticalAlign=top;align=center;shape=cube;size=10;direction=south;html=1;boundedLbl=1;spacingLeft=5;" parent="8" vertex="1">
                    <mxGeometry width="100" height="80" relative="1" as="geometry">
                        <mxPoint x="10" y="50" as="offset"/>
                    </mxGeometry>
                </mxCell>
                <mxCell id="10" value="nav" style="verticalAlign=top;align=left;shape=cube;size=10;direction=south;fontStyle=0;html=1;boundedLbl=1;spacingLeft=5;" parent="1" vertex="1">
                    <mxGeometry x="350" y="35" width="390" height="140" as="geometry"/>
                </mxCell>
                <mxCell id="11" value="Href" style="verticalAlign=top;align=center;shape=cube;size=10;direction=south;html=1;boundedLbl=1;spacingLeft=5;" parent="10" vertex="1">
                    <mxGeometry width="110" height="80" relative="1" as="geometry">
                        <mxPoint x="60" y="45" as="offset"/>
                    </mxGeometry>
                </mxCell>
                <mxCell id="12" value="Href" style="verticalAlign=top;align=center;shape=cube;size=10;direction=south;html=1;boundedLbl=1;spacingLeft=5;" parent="10" vertex="1">
                    <mxGeometry x="210" y="45" width="110" height="80" as="geometry"/>
                </mxCell>
                <mxCell id="13" value="class = nr1" style="verticalAlign=top;align=left;shape=cube;size=10;direction=south;fontStyle=0;html=1;boundedLbl=1;spacingLeft=5;" parent="1" vertex="1">
                    <mxGeometry x="52.5" y="250" width="690" height="380" as="geometry"/>
                </mxCell>
                <mxCell id="15" value="#backGround&lt;span style=&quot;color: rgba(0, 0, 0, 0); font-family: monospace; font-size: 0px; text-align: start;&quot;&gt;%3CmxGraphModel%3E%3Croot%3E%3CmxCell%20id%3D%220%22%2F%3E%3CmxCell%20id%3D%221%22%20parent%3D%220%22%2F%3E%3CmxCell%20id%3D%222%22%20value%3D%22%23nav%22%20style%3D%22verticalAlign%3Dtop%3Balign%3Dleft%3Bshape%3Dcube%3Bsize%3D10%3Bdirection%3Dsouth%3BfontStyle%3D0%3Bhtml%3D1%3BboundedLbl%3D1%3BspacingLeft%3D5%3B%22%20vertex%3D%221%22%20parent%3D%221%22%3E%3CmxGeometry%20x%3D%22350%22%20y%3D%2235%22%20width%3D%22390%22%20height%3D%22140%22%20as%3D%22geometry%22%2F%3E%3C%2FmxCell%3E%3CmxCell%20id%3D%223%22%20value%3D%22Href%22%20style%3D%22verticalAlign%3Dtop%3Balign%3Dcenter%3Bshape%3Dcube%3Bsize%3D10%3Bdirection%3Dsouth%3Bhtml%3D1%3BboundedLbl%3D1%3BspacingLeft%3D5%3B%22%20vertex%3D%221%22%20parent%3D%222%22%3E%3CmxGeometry%20width%3D%22110%22%20height%3D%2280%22%20relative%3D%221%22%20as%3D%22geometry%22%3E%3CmxPoint%20x%3D%2260%22%20y%3D%2245%22%20as%3D%22offset%22%2F%3E%3C%2FmxGeometry%3E%3C%2FmxCell%3E%3CmxCell%20id%3D%224%22%20value%3D%22Href%22%20style%3D%22verticalAlign%3Dtop%3Balign%3Dcenter%3Bshape%3Dcube%3Bsize%3D10%3Bdirection%3Dsouth%3Bhtml%3D1%3BboundedLbl%3D1%3BspacingLeft%3D5%3B%22%20vertex%3D%221%22%20parent%3D%222%22%3E%3CmxGeometry%20x%3D%22210%22%20y%3D%2245%22%20width%3D%22110%22%20height%3D%2280%22%20as%3D%22geometry%22%2F%3E%3C%2FmxCell%3E%3C%2Froot%3E%3C%2FmxGraphModel%3E&lt;/span&gt;" style="verticalAlign=top;align=center;shape=cube;size=10;direction=south;html=1;boundedLbl=1;spacingLeft=5;" parent="13" vertex="1">
                    <mxGeometry x="45" y="50" width="615" height="77.86" as="geometry"/>
                </mxCell>
                <mxCell id="16" value="#middleGround&lt;span style=&quot;color: rgba(0, 0, 0, 0); font-family: monospace; font-size: 0px; text-align: start;&quot;&gt;%3CmxGraphModel%3E%3Croot%3E%3CmxCell%20id%3D%220%22%2F%3E%3CmxCell%20id%3D%221%22%20parent%3D%220%22%2F%3E%3CmxCell%20id%3D%222%22%20value%3D%22%23nav%22%20style%3D%22verticalAlign%3Dtop%3Balign%3Dleft%3Bshape%3Dcube%3Bsize%3D10%3Bdirection%3Dsouth%3BfontStyle%3D0%3Bhtml%3D1%3BboundedLbl%3D1%3BspacingLeft%3D5%3B%22%20vertex%3D%221%22%20parent%3D%221%22%3E%3CmxGeometry%20x%3D%22350%22%20y%3D%2235%22%20width%3D%22390%22%20height%3D%22140%22%20as%3D%22geometry%22%2F%3E%3C%2FmxCell%3E%3CmxCell%20id%3D%223%22%20value%3D%22Href%22%20style%3D%22verticalAlign%3Dtop%3Balign%3Dcenter%3Bshape%3Dcube%3Bsize%3D10%3Bdirection%3Dsouth%3Bhtml%3D1%3BboundedLbl%3D1%3BspacingLeft%3D5%3B%22%20vertex%3D%221%22%20parent%3D%222%22%3E%3CmxGeometry%20width%3D%22110%22%20height%3D%2280%22%20relative%3D%221%22%20as%3D%22geometry%22%3E%3CmxPoint%20x%3D%2260%22%20y%3D%2245%22%20as%3D%22offset%22%2F%3E%3C%2FmxGeometry%3E%3C%2FmxCell%3E%3CmxCell%20id%3D%224%22%20value%3D%22Href%22%20style%3D%22verticalAlign%3Dtop%3Balign%3Dcenter%3Bshape%3Dcube%3Bsize%3D10%3Bdirection%3Dsouth%3Bhtml%3D1%3BboundedLbl%3D1%3BspacingLeft%3D5%3B%22%20vertex%3D%221%22%20parent%3D%222%22%3E%3CmxGeometry%20x%3D%22210%22%20y%3D%2245%22%20width%3D%22110%22%20height%3D%2280%22%20as%3D%22geometry%22%2F%3E%3C%2FmxCell%3E%3C%2Froot%3E%3C%2FmxGraphModel%3E&lt;/span&gt;" style="verticalAlign=top;align=center;shape=cube;size=10;direction=south;html=1;boundedLbl=1;spacingLeft=5;" parent="13" vertex="1">
                    <mxGeometry x="45" y="160" width="615" height="77.86" as="geometry"/>
                </mxCell>
                <mxCell id="17" value="#foreGround&lt;span style=&quot;color: rgba(0, 0, 0, 0); font-family: monospace; font-size: 0px; text-align: start;&quot;&gt;%3CmxGraphModel%3E%3Croot%3E%3CmxCell%20id%3D%220%22%2F%3E%3CmxCell%20id%3D%221%22%20parent%3D%220%22%2F%3E%3CmxCell%20id%3D%222%22%20value%3D%22%23nav%22%20style%3D%22verticalAlign%3Dtop%3Balign%3Dleft%3Bshape%3Dcube%3Bsize%3D10%3Bdirection%3Dsouth%3BfontStyle%3D0%3Bhtml%3D1%3BboundedLbl%3D1%3BspacingLeft%3D5%3B%22%20vertex%3D%221%22%20parent%3D%221%22%3E%3CmxGeometry%20x%3D%22350%22%20y%3D%2235%22%20width%3D%22390%22%20height%3D%22140%22%20as%3D%22geometry%22%2F%3E%3C%2FmxCell%3E%3CmxCell%20id%3D%223%22%20value%3D%22Href%22%20style%3D%22verticalAlign%3Dtop%3Balign%3Dcenter%3Bshape%3Dcube%3Bsize%3D10%3Bdirection%3Dsouth%3Bhtml%3D1%3BboundedLbl%3D1%3BspacingLeft%3D5%3B%22%20vertex%3D%221%22%20parent%3D%222%22%3E%3CmxGeometry%20width%3D%22110%22%20height%3D%2280%22%20relative%3D%221%22%20as%3D%22geometry%22%3E%3CmxPoint%20x%3D%2260%22%20y%3D%2245%22%20as%3D%22offset%22%2F%3E%3C%2FmxGeometry%3E%3C%2FmxCell%3E%3CmxCell%20id%3D%224%22%20value%3D%22Href%22%20style%3D%22verticalAlign%3Dtop%3Balign%3Dcenter%3Bshape%3Dcube%3Bsize%3D10%3Bdirection%3Dsouth%3Bhtml%3D1%3BboundedLbl%3D1%3BspacingLeft%3D5%3B%22%20vertex%3D%221%22%20parent%3D%222%22%3E%3CmxGeometry%20x%3D%22210%22%20y%3D%2245%22%20width%3D%22110%22%20height%3D%2280%22%20as%3D%22geometry%22%2F%3E%3C%2FmxCell%3E%3C%2Froot%3E%3C%2FmxGraphModel%3E&lt;/span&gt;" style="verticalAlign=top;align=center;shape=cube;size=10;direction=south;html=1;boundedLbl=1;spacingLeft=5;" parent="13" vertex="1">
                    <mxGeometry x="45" y="270" width="615" height="77.86" as="geometry"/>
                </mxCell>
                <mxCell id="18" value="svg" style="shape=umlActor;verticalLabelPosition=bottom;verticalAlign=top;html=1;" parent="13" vertex="1">
                    <mxGeometry x="285" y="197.86" width="25" height="40" as="geometry"/>
                </mxCell>
                <mxCell id="21" value="svg" style="shape=umlActor;verticalLabelPosition=bottom;verticalAlign=top;html=1;" parent="13" vertex="1">
                    <mxGeometry x="385" y="197.86" width="25" height="40" as="geometry"/>
                </mxCell>
                <mxCell id="20" value="svg" style="shape=umlActor;verticalLabelPosition=bottom;verticalAlign=top;html=1;" parent="13" vertex="1">
                    <mxGeometry x="332.5" y="197.86" width="25" height="40" as="geometry"/>
                </mxCell>
                <mxCell id="24" value="svg" style="shape=umlActor;verticalLabelPosition=bottom;verticalAlign=top;html=1;" parent="13" vertex="1">
                    <mxGeometry x="285" y="307.86" width="25" height="40" as="geometry"/>
                </mxCell>
                <mxCell id="25" value="svg" style="shape=umlActor;verticalLabelPosition=bottom;verticalAlign=top;html=1;" parent="13" vertex="1">
                    <mxGeometry x="385" y="307.86" width="25" height="40" as="geometry"/>
                </mxCell>
                <mxCell id="26" value="svg" style="shape=umlActor;verticalLabelPosition=bottom;verticalAlign=top;html=1;" parent="13" vertex="1">
                    <mxGeometry x="332.5" y="307.86" width="25" height="40" as="geometry"/>
                </mxCell>
                <mxCell id="27" value="svg" style="shape=umlActor;verticalLabelPosition=bottom;verticalAlign=top;html=1;" parent="13" vertex="1">
                    <mxGeometry x="285" y="87.86000000000001" width="25" height="40" as="geometry"/>
                </mxCell>
                <mxCell id="28" value="svg" style="shape=umlActor;verticalLabelPosition=bottom;verticalAlign=top;html=1;" parent="13" vertex="1">
                    <mxGeometry x="385" y="87.86000000000001" width="25" height="40" as="geometry"/>
                </mxCell>
                <mxCell id="29" value="svg" style="shape=umlActor;verticalLabelPosition=bottom;verticalAlign=top;html=1;" parent="13" vertex="1">
                    <mxGeometry x="332.5" y="87.86000000000001" width="25" height="40" as="geometry"/>
                </mxCell>
                <mxCell id="44" value="class = nr2" style="verticalAlign=top;align=left;shape=cube;size=10;direction=south;fontStyle=0;html=1;boundedLbl=1;spacingLeft=5;" parent="1" vertex="1">
                    <mxGeometry x="57.5" y="670" width="685" height="1180" as="geometry"/>
                </mxCell>
                <mxCell id="45" value="class = whatIs" style="verticalAlign=top;align=center;shape=cube;size=10;direction=south;html=1;boundedLbl=1;spacingLeft=5;" parent="44" vertex="1">
                    <mxGeometry width="640" height="420" relative="1" as="geometry">
                        <mxPoint x="23" y="60" as="offset"/>
                    </mxGeometry>
                </mxCell>
                <mxCell id="49" value="h2" style="verticalAlign=top;align=center;shape=cube;size=10;direction=south;html=1;boundedLbl=1;spacingLeft=5;" parent="44" vertex="1">
                    <mxGeometry x="208.75" y="124.21052631578948" width="267.5" height="49.684210526315795" as="geometry"/>
                </mxCell>
                <mxCell id="50" value="class = nemtAtFinde" style="verticalAlign=top;align=left;shape=cube;size=10;direction=south;fontStyle=0;html=1;boundedLbl=1;spacingLeft=5;" parent="44" vertex="1">
                    <mxGeometry x="24.5" y="504.29" width="635.5" height="665.71" as="geometry"/>
                </mxCell>
                <mxCell id="51" value="H2" style="verticalAlign=top;align=center;shape=cube;size=10;direction=south;html=1;boundedLbl=1;spacingLeft=5;" parent="50" vertex="1">
                    <mxGeometry width="100" height="40" relative="1" as="geometry">
                        <mxPoint x="248" y="30" as="offset"/>
                    </mxGeometry>
                </mxCell>
                <mxCell id="128" value="" style="group" vertex="1" connectable="0" parent="50">
                    <mxGeometry x="368" y="112.98691274359739" width="145.82" height="312.0096232173523" as="geometry"/>
                </mxCell>
                <mxCell id="131" value="" style="group" vertex="1" connectable="0" parent="50">
                    <mxGeometry x="78" y="112.98691274359743" width="145.82" height="502.72" as="geometry"/>
                </mxCell>
                <mxCell id="138" value="" style="group" vertex="1" connectable="0" parent="131">
                    <mxGeometry width="145.82" height="502.72" as="geometry"/>
                </mxCell>
                <mxCell id="146" value="" style="group" vertex="1" connectable="0" parent="138">
                    <mxGeometry width="145.82" height="230" as="geometry"/>
                </mxCell>
                <mxCell id="132" value="template" style="verticalAlign=top;align=center;shape=cube;size=10;direction=south;html=1;boundedLbl=1;spacingLeft=5;" vertex="1" parent="146">
                    <mxGeometry width="145.82" height="229.99999999999997" as="geometry"/>
                </mxCell>
                <mxCell id="133" value="class=articleFinde" style="verticalAlign=top;align=center;shape=cube;size=10;direction=south;html=1;boundedLbl=1;spacingLeft=5;" vertex="1" parent="146">
                    <mxGeometry x="11.066149537944554" y="33.18449925124537" width="114.33660039204703" height="182.75725069527215" as="geometry"/>
                </mxCell>
                <mxCell id="134" value="img" style="verticalAlign=top;align=center;shape=cube;size=10;direction=south;html=1;boundedLbl=1;spacingLeft=5;" vertex="1" parent="146">
                    <mxGeometry x="20.22" y="63.26279233461233" width="88.54" height="32.56758524054035" as="geometry"/>
                </mxCell>
                <mxCell id="135" value="h3" style="verticalAlign=top;align=center;shape=cube;size=10;direction=south;html=1;boundedLbl=1;spacingLeft=5;" vertex="1" parent="146">
                    <mxGeometry x="20.223157682934534" y="105.43687540111871" width="81.76831550313182" height="30.077625989425748" as="geometry"/>
                </mxCell>
                <mxCell id="136" value="p" style="verticalAlign=top;align=center;shape=cube;size=10;direction=south;html=1;boundedLbl=1;spacingLeft=5;" vertex="1" parent="146">
                    <mxGeometry x="20.223157682934534" y="140.58250053482487" width="81.76831550313182" height="30.077625989425748" as="geometry"/>
                </mxCell>
                <mxCell id="137" value="p" style="verticalAlign=top;align=center;shape=cube;size=10;direction=south;html=1;boundedLbl=1;spacingLeft=5;" vertex="1" parent="146">
                    <mxGeometry x="20.223157682934534" y="175.72812566853102" width="81.76831550313182" height="30.077625989425748" as="geometry"/>
                </mxCell>
                <mxCell id="154" value="" style="group" vertex="1" connectable="0" parent="138">
                    <mxGeometry y="272.72" width="145.82" height="230" as="geometry"/>
                </mxCell>
                <mxCell id="155" value="template" style="verticalAlign=top;align=center;shape=cube;size=10;direction=south;html=1;boundedLbl=1;spacingLeft=5;" vertex="1" parent="154">
                    <mxGeometry width="145.82" height="229.99999999999997" as="geometry"/>
                </mxCell>
                <mxCell id="156" value="class=articleFinde" style="verticalAlign=top;align=center;shape=cube;size=10;direction=south;html=1;boundedLbl=1;spacingLeft=5;" vertex="1" parent="154">
                    <mxGeometry x="11.066149537944554" y="33.18449925124537" width="114.33660039204703" height="182.75725069527215" as="geometry"/>
                </mxCell>
                <mxCell id="157" value="img" style="verticalAlign=top;align=center;shape=cube;size=10;direction=south;html=1;boundedLbl=1;spacingLeft=5;" vertex="1" parent="154">
                    <mxGeometry x="20.22" y="63.26279233461233" width="88.54" height="32.56758524054035" as="geometry"/>
                </mxCell>
                <mxCell id="158" value="h3" style="verticalAlign=top;align=center;shape=cube;size=10;direction=south;html=1;boundedLbl=1;spacingLeft=5;" vertex="1" parent="154">
                    <mxGeometry x="20.223157682934534" y="105.43687540111871" width="81.76831550313182" height="30.077625989425748" as="geometry"/>
                </mxCell>
                <mxCell id="159" value="p" style="verticalAlign=top;align=center;shape=cube;size=10;direction=south;html=1;boundedLbl=1;spacingLeft=5;" vertex="1" parent="154">
                    <mxGeometry x="20.223157682934534" y="140.58250053482487" width="81.76831550313182" height="30.077625989425748" as="geometry"/>
                </mxCell>
                <mxCell id="160" value="p" style="verticalAlign=top;align=center;shape=cube;size=10;direction=south;html=1;boundedLbl=1;spacingLeft=5;" vertex="1" parent="154">
                    <mxGeometry x="20.223157682934534" y="175.72812566853102" width="81.76831550313182" height="30.077625989425748" as="geometry"/>
                </mxCell>
                <mxCell id="147" value="" style="group" vertex="1" connectable="0" parent="50">
                    <mxGeometry x="338" y="105.70691274359751" width="145.82" height="230" as="geometry"/>
                </mxCell>
                <mxCell id="148" value="template" style="verticalAlign=top;align=center;shape=cube;size=10;direction=south;html=1;boundedLbl=1;spacingLeft=5;" vertex="1" parent="147">
                    <mxGeometry width="145.82" height="229.99999999999997" as="geometry"/>
                </mxCell>
                <mxCell id="149" value="class=articleFinde" style="verticalAlign=top;align=center;shape=cube;size=10;direction=south;html=1;boundedLbl=1;spacingLeft=5;" vertex="1" parent="147">
                    <mxGeometry x="11.066149537944554" y="33.18449925124537" width="114.33660039204703" height="182.75725069527215" as="geometry"/>
                </mxCell>
                <mxCell id="150" value="img" style="verticalAlign=top;align=center;shape=cube;size=10;direction=south;html=1;boundedLbl=1;spacingLeft=5;" vertex="1" parent="147">
                    <mxGeometry x="20.22" y="63.26279233461233" width="88.54" height="32.56758524054035" as="geometry"/>
                </mxCell>
                <mxCell id="151" value="h3" style="verticalAlign=top;align=center;shape=cube;size=10;direction=south;html=1;boundedLbl=1;spacingLeft=5;" vertex="1" parent="147">
                    <mxGeometry x="20.223157682934534" y="105.43687540111871" width="81.76831550313182" height="30.077625989425748" as="geometry"/>
                </mxCell>
                <mxCell id="152" value="p" style="verticalAlign=top;align=center;shape=cube;size=10;direction=south;html=1;boundedLbl=1;spacingLeft=5;" vertex="1" parent="147">
                    <mxGeometry x="20.223157682934534" y="140.58250053482487" width="81.76831550313182" height="30.077625989425748" as="geometry"/>
                </mxCell>
                <mxCell id="153" value="p" style="verticalAlign=top;align=center;shape=cube;size=10;direction=south;html=1;boundedLbl=1;spacingLeft=5;" vertex="1" parent="147">
                    <mxGeometry x="20.223157682934534" y="175.72812566853102" width="81.76831550313182" height="30.077625989425748" as="geometry"/>
                </mxCell>
                <mxCell id="161" value="" style="group" vertex="1" connectable="0" parent="50">
                    <mxGeometry x="338" y="375.7069127435975" width="145.82" height="230" as="geometry"/>
                </mxCell>
                <mxCell id="162" value="template" style="verticalAlign=top;align=center;shape=cube;size=10;direction=south;html=1;boundedLbl=1;spacingLeft=5;" vertex="1" parent="161">
                    <mxGeometry width="145.82" height="229.99999999999997" as="geometry"/>
                </mxCell>
                <mxCell id="163" value="class=articleFinde" style="verticalAlign=top;align=center;shape=cube;size=10;direction=south;html=1;boundedLbl=1;spacingLeft=5;" vertex="1" parent="161">
                    <mxGeometry x="11.066149537944554" y="33.18449925124537" width="114.33660039204703" height="182.75725069527215" as="geometry"/>
                </mxCell>
                <mxCell id="164" value="img" style="verticalAlign=top;align=center;shape=cube;size=10;direction=south;html=1;boundedLbl=1;spacingLeft=5;" vertex="1" parent="161">
                    <mxGeometry x="20.22" y="63.26279233461233" width="88.54" height="32.56758524054035" as="geometry"/>
                </mxCell>
                <mxCell id="165" value="h3" style="verticalAlign=top;align=center;shape=cube;size=10;direction=south;html=1;boundedLbl=1;spacingLeft=5;" vertex="1" parent="161">
                    <mxGeometry x="20.223157682934534" y="105.43687540111871" width="81.76831550313182" height="30.077625989425748" as="geometry"/>
                </mxCell>
                <mxCell id="166" value="p" style="verticalAlign=top;align=center;shape=cube;size=10;direction=south;html=1;boundedLbl=1;spacingLeft=5;" vertex="1" parent="161">
                    <mxGeometry x="20.223157682934534" y="140.58250053482487" width="81.76831550313182" height="30.077625989425748" as="geometry"/>
                </mxCell>
                <mxCell id="167" value="p" style="verticalAlign=top;align=center;shape=cube;size=10;direction=south;html=1;boundedLbl=1;spacingLeft=5;" vertex="1" parent="161">
                    <mxGeometry x="20.223157682934534" y="175.72812566853102" width="81.76831550313182" height="30.077625989425748" as="geometry"/>
                </mxCell>
                <mxCell id="112" style="edgeStyle=none;html=1;exitX=0;exitY=0;exitDx=40;exitDy=63.75;exitPerimeter=0;entryX=0;entryY=0;entryDx=0;entryDy=53.75;entryPerimeter=0;" parent="44" source="108" target="109" edge="1">
                    <mxGeometry relative="1" as="geometry"/>
                </mxCell>
                <mxCell id="108" value="class = kulge" style="verticalAlign=top;align=center;shape=cube;size=10;direction=south;html=1;boundedLbl=1;spacingLeft=5;" parent="44" vertex="1">
                    <mxGeometry x="62.5" y="198.73684210526318" width="117.5" height="49.684210526315795" as="geometry"/>
                </mxCell>
                <mxCell id="113" style="edgeStyle=none;html=1;entryX=0;entryY=0;entryDx=40;entryDy=63.75;entryPerimeter=0;" parent="44" source="109" target="110" edge="1">
                    <mxGeometry relative="1" as="geometry"/>
                </mxCell>
                <mxCell id="109" value="class = streg" style="verticalAlign=top;align=center;shape=cube;size=10;direction=south;html=1;boundedLbl=1;spacingLeft=5;" parent="44" vertex="1">
                    <mxGeometry x="62.5" y="347.7894736842106" width="117.5" height="49.684210526315795" as="geometry"/>
                </mxCell>
                <mxCell id="116" style="edgeStyle=none;html=1;" parent="44" source="110" target="114" edge="1">
                    <mxGeometry relative="1" as="geometry"/>
                </mxCell>
                <mxCell id="110" value="class = kulge" style="verticalAlign=top;align=center;shape=cube;size=10;direction=south;html=1;boundedLbl=1;spacingLeft=5;" parent="44" vertex="1">
                    <mxGeometry x="272.5" y="198.73684210526318" width="117.5" height="49.684210526315795" as="geometry"/>
                </mxCell>
                <mxCell id="118" style="edgeStyle=none;html=1;" parent="44" source="111" target="115" edge="1">
                    <mxGeometry relative="1" as="geometry"/>
                </mxCell>
                <mxCell id="111" value="class = kulge" style="verticalAlign=top;align=center;shape=cube;size=10;direction=south;html=1;boundedLbl=1;spacingLeft=5;" parent="44" vertex="1">
                    <mxGeometry x="482.5" y="198.73684210526318" width="117.5" height="49.684210526315795" as="geometry"/>
                </mxCell>
                <mxCell id="117" style="edgeStyle=none;html=1;entryX=0;entryY=0;entryDx=40;entryDy=63.75;entryPerimeter=0;" parent="44" source="114" target="111" edge="1">
                    <mxGeometry relative="1" as="geometry"/>
                </mxCell>
                <mxCell id="114" value="class = streg" style="verticalAlign=top;align=center;shape=cube;size=10;direction=south;html=1;boundedLbl=1;spacingLeft=5;" parent="44" vertex="1">
                    <mxGeometry x="272.5" y="347.7894736842106" width="117.5" height="49.684210526315795" as="geometry"/>
                </mxCell>
                <mxCell id="115" value="class = streg" style="verticalAlign=top;align=center;shape=cube;size=10;direction=south;html=1;boundedLbl=1;spacingLeft=5;" parent="44" vertex="1">
                    <mxGeometry x="482.5" y="347.7894736842106" width="117.5" height="49.684210526315795" as="geometry"/>
                </mxCell>
                <mxCell id="119" value="#info1" style="verticalAlign=top;align=center;shape=cube;size=10;direction=south;html=1;boundedLbl=1;spacingLeft=5;" parent="44" vertex="1">
                    <mxGeometry x="32.5" y="409.8947368421053" width="87.5" height="49.684210526315795" as="geometry"/>
                </mxCell>
                <mxCell id="120" value="#info2" style="verticalAlign=top;align=center;shape=cube;size=10;direction=south;html=1;boundedLbl=1;spacingLeft=5;" parent="44" vertex="1">
                    <mxGeometry x="132.5" y="409.8947368421053" width="87.5" height="49.684210526315795" as="geometry"/>
                </mxCell>
                <mxCell id="121" value="#info3" style="verticalAlign=top;align=center;shape=cube;size=10;direction=south;html=1;boundedLbl=1;spacingLeft=5;" parent="44" vertex="1">
                    <mxGeometry x="232.5" y="409.8947368421053" width="87.5" height="49.684210526315795" as="geometry"/>
                </mxCell>
                <mxCell id="123" value="#info4" style="verticalAlign=top;align=center;shape=cube;size=10;direction=south;html=1;boundedLbl=1;spacingLeft=5;" parent="44" vertex="1">
                    <mxGeometry x="332.5" y="409.8947368421053" width="87.5" height="49.684210526315795" as="geometry"/>
                </mxCell>
                <mxCell id="124" value="#info5" style="verticalAlign=top;align=center;shape=cube;size=10;direction=south;html=1;boundedLbl=1;spacingLeft=5;" parent="44" vertex="1">
                    <mxGeometry x="432.5" y="409.8947368421053" width="87.5" height="49.684210526315795" as="geometry"/>
                </mxCell>
                <mxCell id="125" value="#info6" style="verticalAlign=top;align=center;shape=cube;size=10;direction=south;html=1;boundedLbl=1;spacingLeft=5;" parent="44" vertex="1">
                    <mxGeometry x="532.5" y="409.8947368421053" width="87.5" height="49.684210526315795" as="geometry"/>
                </mxCell>
                <mxCell id="89" value="class = nr3" style="verticalAlign=top;align=left;shape=cube;size=10;direction=south;fontStyle=0;html=1;boundedLbl=1;spacingLeft=5;" parent="1" vertex="1">
                    <mxGeometry x="72" y="1940" width="682.5" height="710" as="geometry"/>
                </mxCell>
                <mxCell id="90" value="class = seasonNav" style="verticalAlign=top;align=center;shape=cube;size=10;direction=south;html=1;boundedLbl=1;spacingLeft=5;" parent="89" vertex="1">
                    <mxGeometry width="650" height="210" relative="1" as="geometry">
                        <mxPoint x="10" y="50" as="offset"/>
                    </mxGeometry>
                </mxCell>
                <mxCell id="91" value="button #sommer" style="verticalAlign=top;align=center;shape=cube;size=10;direction=south;html=1;boundedLbl=1;spacingLeft=5;" parent="89" vertex="1">
                    <mxGeometry x="318" y="79.99736842105264" width="100" height="87.19298245614036" as="geometry"/>
                </mxCell>
                <mxCell id="92" value="button #vinter" style="verticalAlign=top;align=center;shape=cube;size=10;direction=south;html=1;boundedLbl=1;spacingLeft=5;" parent="89" vertex="1">
                    <mxGeometry x="208" y="82.80736842105264" width="100" height="87.19298245614036" as="geometry"/>
                </mxCell>
                <mxCell id="93" value="button #efterår" style="verticalAlign=top;align=center;shape=cube;size=10;direction=south;html=1;boundedLbl=1;spacingLeft=5;" parent="89" vertex="1">
                    <mxGeometry x="208" y="169.99736842105264" width="100" height="87.19298245614036" as="geometry"/>
                </mxCell>
                <mxCell id="94" value="button #forår" style="verticalAlign=top;align=center;shape=cube;size=10;direction=south;html=1;boundedLbl=1;spacingLeft=5;" parent="89" vertex="1">
                    <mxGeometry x="318" y="169.99736842105264" width="100" height="87.19298245614036" as="geometry"/>
                </mxCell>
                <mxCell id="95" value="class = billede_sommer" style="verticalAlign=top;align=center;shape=cube;size=10;direction=south;html=1;boundedLbl=1;spacingLeft=5;" parent="89" vertex="1">
                    <mxGeometry x="13.75" y="280" width="640" height="405.09" as="geometry"/>
                </mxCell>
                <mxCell id="96" value="#sommer1" style="verticalAlign=top;align=center;shape=cube;size=10;direction=south;html=1;boundedLbl=1;spacingLeft=5;" parent="89" vertex="1">
                    <mxGeometry x="63.75" y="323.85964912280707" width="150" height="249.1228070175439" as="geometry"/>
                </mxCell>
                <mxCell id="97" value="#sommer2" style="verticalAlign=top;align=center;shape=cube;size=10;direction=south;html=1;boundedLbl=1;spacingLeft=5;" parent="89" vertex="1">
                    <mxGeometry x="258.75" y="323.85964912280707" width="150" height="249.1228070175439" as="geometry"/>
                </mxCell>
                <mxCell id="98" value="#sommer3" style="verticalAlign=top;align=center;shape=cube;size=10;direction=south;html=1;boundedLbl=1;spacingLeft=5;" parent="89" vertex="1">
                    <mxGeometry x="453.75" y="323.85964912280707" width="150" height="249.1228070175439" as="geometry"/>
                </mxCell>
                <mxCell id="99" value="h3" style="verticalAlign=top;align=center;shape=cube;size=10;direction=south;html=1;boundedLbl=1;spacingLeft=5;" parent="89" vertex="1">
                    <mxGeometry x="83.75" y="373.68421052631584" width="100" height="49.824561403508774" as="geometry"/>
                </mxCell>
                <mxCell id="100" value="h3" style="verticalAlign=top;align=center;shape=cube;size=10;direction=south;html=1;boundedLbl=1;spacingLeft=5;" parent="89" vertex="1">
                    <mxGeometry x="283.75" y="373.68421052631584" width="100" height="49.824561403508774" as="geometry"/>
                </mxCell>
                <mxCell id="101" value="h3" style="verticalAlign=top;align=center;shape=cube;size=10;direction=south;html=1;boundedLbl=1;spacingLeft=5;" parent="89" vertex="1">
                    <mxGeometry x="478.75" y="373.68421052631584" width="100" height="49.824561403508774" as="geometry"/>
                </mxCell>
                <mxCell id="102" value="p" style="verticalAlign=top;align=center;shape=cube;size=10;direction=south;html=1;boundedLbl=1;spacingLeft=5;" parent="89" vertex="1">
                    <mxGeometry x="98.75" y="435.9649122807018" width="61.25" height="49.824561403508774" as="geometry"/>
                </mxCell>
                <mxCell id="103" value="p" style="verticalAlign=top;align=center;shape=cube;size=10;direction=south;html=1;boundedLbl=1;spacingLeft=5;" parent="89" vertex="1">
                    <mxGeometry x="98.75" y="498.2456140350878" width="61.25" height="49.824561403508774" as="geometry"/>
                </mxCell>
                <mxCell id="104" value="p" style="verticalAlign=top;align=center;shape=cube;size=10;direction=south;html=1;boundedLbl=1;spacingLeft=5;" parent="89" vertex="1">
                    <mxGeometry x="295.75" y="435.9649122807018" width="61.25" height="49.824561403508774" as="geometry"/>
                </mxCell>
                <mxCell id="105" value="p" style="verticalAlign=top;align=center;shape=cube;size=10;direction=south;html=1;boundedLbl=1;spacingLeft=5;" parent="89" vertex="1">
                    <mxGeometry x="295.75" y="498.2456140350878" width="61.25" height="49.824561403508774" as="geometry"/>
                </mxCell>
                <mxCell id="106" value="p" style="verticalAlign=top;align=center;shape=cube;size=10;direction=south;html=1;boundedLbl=1;spacingLeft=5;" parent="89" vertex="1">
                    <mxGeometry x="490" y="435.9649122807018" width="61.25" height="49.824561403508774" as="geometry"/>
                </mxCell>
                <mxCell id="107" value="p" style="verticalAlign=top;align=center;shape=cube;size=10;direction=south;html=1;boundedLbl=1;spacingLeft=5;" parent="89" vertex="1">
                    <mxGeometry x="490" y="498.2456140350878" width="61.25" height="49.824561403508774" as="geometry"/>
                </mxCell>
            </root>
        </mxGraphModel>
    </diagram>
</mxfile>